<svg width="48" height="48" xmlns="http://www.w3.org/2000/svg">

 <g>
  <title>background</title>
  <rect fill="none" id="canvas_background" height="402" width="582" y="-1" x="-1"/>
 </g>
 <g>
  <title>Layer 1</title>
  <path fill="#ffffff" id="svg_1" fill-rule="evenodd" d="m44.650055,34.553987c0,0.011 0.006,0.019 0.006,0.029c0,0.005 -0.003,0.01 -0.003,0.016c0.001,0.005 0.003,0.01 0.003,0.016c0,0.552 -0.447,1 -1,1c0.015,-0.001 -8.906,-0.032 -8.906,-0.032c-0.553,0 -1,-0.448 -1,-1c0,-0.553 0.447,-1 1,-1l7.946,0c0.019,-0.334 0.054,-0.662 0.054,-1c0,-10.493 -8.507,-19 -19,-19s-19,8.507 -19,19c0,0.338 0.035,0.666 0.053,1l7.947,0c0.553,0 1,0.447 1,1c0,0.552 -0.447,1 -1,1c0,0 -8.92,0.031 -8.906,0.031c-0.553,0 -1,-0.448 -1,-1c0,-0.006 0.002,-0.011 0.003,-0.016c0,-0.006 -0.003,-0.011 -0.003,-0.016c0,-0.011 0.006,-0.019 0.006,-0.028c-0.061,-0.65 -0.1,-1.306 -0.1,-1.971c0,-11.599 9.402,-21 21,-21s21,9.401 21,21c0,0.665 -0.039,1.321 -0.1,1.971zm-27.377,-11.843c0.393,-0.216 0.865,-0.144 1.189,0.133l-0.05,-0.083c8.774,6.42 10.577,9.373 10.61,9.428c1.433,2.357 0.581,5.371 -1.899,6.731s-5.653,0.553 -7.085,-1.804c-0.035,-0.053 -1.824,-3.014 -3.291,-13.442l0.051,0.082c-0.089,-0.404 0.083,-0.83 0.475,-1.045zm4.563,13.421c0.555,0.911 1.589,1.478 2.699,1.478c0.542,0 1.079,-0.137 1.552,-0.397c0.72,-0.395 1.235,-1.031 1.45,-1.794c0.216,-0.764 0.105,-1.56 -0.303,-2.232c-0.017,-0.025 -1.572,-2.386 -8.062,-7.348c1.281,7.815 2.653,10.273 2.664,10.293z" clip-rule="evenodd"/>
  <path stroke="null" fill="#ffffff" id="svg_2" fill-rule="evenodd" d="m46.14845,35.063046c0,0.005575 -0.003232,0.011151 -0.003232,0.017841c0.001077,0.005575 0.003232,0.011151 0.003232,0.017841c0,0.61551 -0.481582,1.115054 -1.077364,1.115054c0.01616,-0.001115 -9.595004,-0.035682 -9.595004,-0.035682c-0.595782,0 -1.077364,-0.499544 -1.077364,-1.115054c0,-0.616625 0.481582,-1.115054 1.077364,-1.115054l8.560735,0c0.02047,-0.372428 0.058178,-0.738166 0.058178,-1.115054c0,-11.700264 -9.165136,-21.18603 -20.469917,-21.18603s-20.469917,9.485766 -20.469917,21.18603c0,0.376888 0.037708,0.742626 0.0571,1.115054l8.561812,0c0.595782,0 1.077364,0.498429 1.077364,1.115054c0,0.61551 -0.481582,1.115054 -1.077364,1.115054c0,0 -9.610087,0.034567 -9.595004,0.034567c-0.595782,0 -1.077364,-0.499544 -1.077364,-1.115054c0,-0.00669 0.002155,-0.012266 0.003232,-0.017841c0,-0.00669 -0.003232,-0.012266 -0.003232,-0.017841c0,-0.012266 0.006464,-0.021186 0.006464,-0.031222c-0.065719,-0.724785 -0.107736,-1.456261 -0.107736,-2.197772c0,-12.933514 10.129377,-23.416139 22.624645,-23.416139s22.624645,10.482625 22.624645,23.416139l-0.101272,2.230108zm-29.50146,-13.237924c0.423404,-0.240852 0.93192,-0.160568 1.280986,0.148302l-0.053868,-0.09255c9.452792,7.158648 11.39528,10.451403 11.430833,10.512731c1.543863,2.628183 0.625949,5.988956 -2.045914,7.50543s-6.090339,0.616625 -7.633124,-2.011558c-0.037708,-0.059098 -1.965112,-3.360773 -3.545605,-14.988559l0.054946,0.091434c-0.095885,-0.450482 0.089421,-0.925495 0.511748,-1.165232zm4.916012,14.965143c0.597937,1.015814 1.711931,1.64805 2.907806,1.64805c0.583931,0 1.162476,-0.152762 1.672069,-0.442677c0.775702,-0.440446 1.330545,-1.149621 1.562178,-2.000407c0.232711,-0.851901 0.113123,-1.739485 -0.326441,-2.488801c-0.018315,-0.027876 -1.693616,-2.660519 -8.685709,-8.193418c1.380103,8.714149 2.858247,11.454952 2.870098,11.477253z" clip-rule="evenodd"/>
 </g>
</svg>
