<?xml version="1.0" encoding="UTF-8" standalone="no"?>
<svg
   xmlns:dc="http://purl.org/dc/elements/1.1/"
   xmlns:cc="http://creativecommons.org/ns#"
   xmlns:rdf="http://www.w3.org/1999/02/22-rdf-syntax-ns#"
   xmlns:svg="http://www.w3.org/2000/svg"
   xmlns="http://www.w3.org/2000/svg"
   xmlns:sodipodi="http://sodipodi.sourceforge.net/DTD/sodipodi-0.dtd"
   xmlns:inkscape="http://www.inkscape.org/namespaces/inkscape"
   width="1792"
   height="1792"
   version="1.1"
   id="svg316"
   sodipodi:docname="linechart-icon.svg"
   inkscape:version="0.92.2 (5c3e80d, 2017-08-06)">
  <metadata
     id="metadata322">
    <rdf:RDF>
      <cc:Work
         rdf:about="">
        <dc:format>image/svg+xml</dc:format>
        <dc:type
           rdf:resource="http://purl.org/dc/dcmitype/StillImage" />
        <dc:title></dc:title>
      </cc:Work>
    </rdf:RDF>
  </metadata>
  <defs
     id="defs320" />
  <sodipodi:namedview
     pagecolor="#ffffff"
     bordercolor="#666666"
     borderopacity="0"
     objecttolerance="10"
     gridtolerance="10"
     guidetolerance="10"
     inkscape:pageopacity="0"
     inkscape:pageshadow="2"
     inkscape:window-width="3200"
     inkscape:window-height="1674"
     id="namedview318"
     showgrid="false"
     inkscape:pagecheckerboard="true"
     inkscape:zoom="0.78125"
     inkscape:cx="896"
     inkscape:cy="847.93253"
     inkscape:window-x="0"
     inkscape:window-y="0"
     inkscape:window-maximized="1"
     inkscape:current-layer="svg316" />
  <g
     id="g309">
    <title
       id="title306">background</title>
    <rect
       fill="none"
       id="canvas_background"
       height="402"
       width="582"
       y="-1"
       x="-1" />
  </g>
  <g
     id="g314">
    <title
       id="title311">Layer 1</title>
    <path
       id="svg_1"
       d="m -128,1664 v 0 0 0 0 z M 1792,288 v 435 c 0,14 -6.5,23.83333 -19.5,29.5 -13,5.66667 -24.8333,3.16667 -35.5,-7.5 L 1616,624 983,1257 c -6.66667,6.6667 -14.33333,10 -23,10 -8.66667,0 -16.33333,-3.3333 -23,-10 L 704,1024 288,1440 96,1248 681,663 c 6.66667,-6.66667 14.33333,-10 23,-10 8.66667,0 16.33333,3.33333 23,10 L 960,896 1424,432 1303,311 c -10.6667,-10.66667 -13.1667,-22.5 -7.5,-35.5 5.6667,-13 15.5,-19.5 29.5,-19.5 h 435 c 9.3333,0 17,3 23,9 6,6 9,13.66667 9,23 z"
       inkscape:connector-curvature="0"
       style="fill:#ffffff"
       sodipodi:nodetypes="cccccccsssscssscccsssccssssss" />
  </g>
</svg>
