<svg width="32" height="32" xmlns="http://www.w3.org/2000/svg">

 <g>
  <title>background</title>
  <rect fill="none" id="canvas_background" height="402" width="582" y="-1" x="-1"/>
 </g>
 <g>
  <title>Layer 1</title>
  <rect id="svg_1" width="32" height="32" fill="none"/>
  <path fill="#ffffff" id="svg_2" d="m24,12l-16,0l0,2l15,0l1,0l0,-2zm4,3.518l0,-11.518l-24,0l0,24l11.518,0c1.614,2.411 4.361,3.999 7.482,4c4.971,-0.002 8.998,-4.029 9,-9c-0.001,-3.121 -1.589,-5.868 -4,-7.482zm-12.483,2.482c-0.412,0.616 -0.743,1.289 -0.994,2l-6.523,0l0,2l6.058,0c-0.036,0.329 -0.058,0.661 -0.058,1c0,1.054 0.19,2.061 0.523,3l-8.523,0l0,-20l20,0l0,8.523c-0.939,-0.333 -1.946,-0.523 -3,-0.523c-2.143,0 -4.107,0.751 -5.652,2l-9.348,0l0,2l7.517,0zm7.483,11.883c-3.801,-0.009 -6.876,-3.084 -6.885,-6.883c0.009,-3.801 3.084,-6.876 6.885,-6.884c3.799,0.008 6.874,3.083 6.883,6.884c-0.009,3.799 -3.084,6.874 -6.883,6.883z"/>
  <polygon fill="#fffff7" id="svg_3" points="22,27 19,27 19,24  "/>
  <rect fill="#ffffff" id="svg_4" y="19.879" x="20.464" width="7.071" transform="matrix(-0.7071,0.7071,-0.7071,-0.7071,56.5269,20.5858) " height="4.243"/>
 </g>
</svg>