<svg width="24.000000000000004" height="24.000000000000004" xmlns="http://www.w3.org/2000/svg">

 <g>
  <title>background</title>
  <rect fill="none" id="canvas_background" height="402" width="582" y="-1" x="-1"/>
 </g>
 <g>
  <title>Layer 1</title>
  <path fill="#ffffff" id="svg_3" d="m11.614,13.98l4.907999,4.922001c0.390001,0.390999 0.99,0.359999 1.286001,-0.106001c0.879999,-1.393999 1.393,-3.044 1.393,-4.815c0,-2.131 -0.741001,-4.085999 -1.972,-5.631l-5.615,5.629999z"/>
  <path fill="#ffffff" id="svg_5" d="m9,14.396l0,-7.355c-3.391,0.487 -6,3.405 -6,6.939c0,3.876001 3.134,7.02 7,7.02c1.572,0 3.018,-0.525999 4.186,-1.403l-5.186,-5.201z"/>
  <path fill="#ffffff" id="svg_7" d="m16.330999,6.213c0.390001,-0.391 0.365,-0.999 -0.088999,-1.313c-1.253,-0.868 -2.695001,-1.479 -4.251,-1.765c-0.544001,-0.1 -0.991,0.312 -0.991,0.865l0,7.56l5.330999,-5.347001z"/>
 </g>
</svg>