<?xml version="1.0" encoding="utf-8"?>
<!-- Svg Vector Icons : http://www.onlinewebfonts.com/icon -->
<!DOCTYPE svg PUBLIC "-//W3C//DTD SVG 1.1//EN" "http://www.w3.org/Graphics/SVG/1.1/DTD/svg11.dtd">
<svg version="1.1" xmlns="http://www.w3.org/2000/svg" xmlns:xlink="http://www.w3.org/1999/xlink" x="0px" y="0px" viewBox="0 0 1000 1000" enable-background="new 0 0 1000 1000" xml:space="preserve">
<metadata> Svg Vector Icons : http://www.onlinewebfonts.com/icon </metadata>
<g><g fill="#ffffff" transform="translate(0.000000,512.000000) scale(0.100000,-0.100000)"><path d="M2389.7,3178.3L1005.5,1336.6l930.4-5.7l930.4-3.8V408.1v-918.9l915.1,3.8l913.2,5.7l5.7,913.2l3.8,915.1l918.9,3.8l917,5.7l-1007,1340.1c-553.3,737.1-1175.5,1566-1384.1,1841.7L3771.9,5020L2389.7,3178.3z"/><path d="M5316.8-156.7v-928.5l-926.6-3.8l-926.6-5.8l289.1-382.9c158.9-210.6,781.1-1039.5,1384.2-1843.6l1095-1458.8l1380.3,1841.7l1382.2,1843.6l-918.9,5.8l-920.8,3.8v928.5v928.5h-918.9h-918.9V-156.7z"/></g></g>
</svg>
